<?xml version="1.0" encoding="utf-8"?>
<!-- Generator: Adobe Illustrator 16.0.0, SVG Export Plug-In . SVG Version: 6.00 Build 0)  -->
<!DOCTYPE svg PUBLIC "-//W3C//DTD SVG 1.1//EN" "http://www.w3.org/Graphics/SVG/1.1/DTD/svg11.dtd">
<?xml-stylesheet type="text/css" href="/assets/notebooks/koper/styles.css" ?>
<svg version="1.1" xmlns="http://www.w3.org/2000/svg" xmlns:xlink="http://www.w3.org/1999/xlink" x="0px" y="0px"
	 viewBox="0 0 343.363 310" enable-background="new 0 0 343.363 310" xml:space="preserve" preserveAspectRatio="xMinYMin">
<!-- <style>
    #Industrial:hover {
		opacity: 0.8;
	}
	#Parks:hover {
		opacity: 0.8;
	}
	#Center:hover {
		opacity: 0.8;
	}
	#Port:hover {
		opacity: 0.8;
	}
	#Hills:hover {
		opacity: 0.8;
	}
	#Residential:hover {
		opacity: 0.8;
	}
	#Skocjanski-zatok:hover {
		opacity: 0.8;
	}
</style> -->
<g id="Background">
	<g>
		
			<image overflow="visible" enable-background="new    " width="6677" height="5750" xlink:href="satview.jpg"  transform="matrix(0.0641 0 0 0.0641 -20.728 -39.8306)">
		</image>
	</g>
</g>
<g id="Layer_1">
	<g id="Layer_2">
		<g>
			<g>
				<g>
					<defs>
						<path id="SVGID_1_" d="M306.239,94.5c-1.068-1.94-2.797-7.362-4.646-8.431c-1.986-1.146-7.23,0.07-9.391,0.141
							c0.057-1.51,0.982-4.374-0.789-4.471c-2.477-0.135-4.955-0.26-7.43-0.406c-2.926-0.172-5.85-0.344-8.771-0.516
							c-1.943-0.114-5.939-1.168-7.781-0.459c-1.357,0.521-1.246,4.358-1.883,4.47c-3.141,0.545-6.277,1.091-9.416,1.637
							c-2.699,0.47-3.783,1.496-5.152-0.873c-1.457-2.519-2.914-5.034-4.371-7.553c1.869-0.065,7.098,0.712,8.432-0.534
							c1.289-1.205,2.189-0.844,3.475-1.695c1.912-1.271-0.783-1.854,2.775-2.004c2.059-0.09,8.674,0.207,4.23-2.455
							c-1.309-0.783-2.053-1.434-3.553-1.426c-1.568,0.01-2.107-1.104-3.633-1.376c-6.141-1.089-12.906-0.039-19.107,0.149
							c-3.426,0.104-6.852,0.207-10.277,0.312c-2.736,0.083,0.063-2.582-2.689-2.5c-2.898,0.086-17.043,2.464-18.367-0.768
							c-0.549-1.338,2.063-6.585,2.484-7.932c1.127-3.598,2.254-7.194,3.383-10.791c0.828-2.644,3.168-3.138,5.537-3.284
							c1.979-0.123,2.045,0.06,3.043-1.581c0.643-1.056,1.23-3.092,2.564-3.156c5.299-0.257,10.311-1.71,15.523-1.977
							c8.416-0.431,16.83-0.859,25.246-1.29c3.262-0.167,2.934-0.02,4-3.284c0.287-0.875,1.818-3.8,0.965-4.375
							c-1.689-1.136-2.564-1.703-4.678-1.21c-0.98-2.807,1.811-2.287,3.74-2.53c0.215-2.009-1.721-2.074-1.559-3.761
							c0.1-1.038-0.174-4.599,0.809-5.086c4.291-2.123,8.582-4.246,12.873-6.369c6.176-3.055,13.854-2.768,20.484-2.834
							c-0.037,3.462-0.074,6.925-0.109,10.388c-0.041,3.734-0.152,3.208,3.516,3.309c7.428,0.199,14.867,0.288,22.293,0.613
							c-0.066,2.4-2.289,1.773-2.605,3.905c-0.42,2.833-0.838,5.666-1.258,8.499c-0.75,5.066-1.705,10.147-2.256,15.239
							c-0.828,7.644-1.746,15.141-3.439,22.67c-2.223,9.896-8.045,19.086-14.25,26.979C302.831,96.722,305.252,95.462,306.239,94.5z
							 M204.956,303.718c-2.715-1.115-5.43-2.234-8.143-3.354c-3.299-1.357-2.248-1.799-1.307-5.271
							c0.637-2.354,0.566-4.778-2.076-5.763c-2.598-0.965,0.289-1.117-0.568-2.824c-0.498-0.99-3.018-2.088-3.938-2.725
							c-1.047-0.725-0.977-1.592-1.262-2.848c-0.289-1.271-2.336-1.236-2.873-2.281c-0.242-0.477,0.398-2.652-0.172-2.737
							c-1.666-0.247-3.332-0.493-4.998-0.74c-0.662-0.099-2.047,0.019-2.377-0.644c-0.395-0.788-0.838-2.854-1.832-2.586
							c-3.35,0.9-6.699,1.801-10.051,2.701c-4.635,1.246-9.33,1.514-13.383,4.146c-2.537,1.647-4.336,3.271-7.334,3.522
							c-3.301,0.278-5.297,2.496-7.943,4.469c-4.334,3.232-9.756,4.688-14.764,6.668c-1.512,0.599-5.211-1.916-6.881-2.174
							c-2.748-0.422-5.861,0-8.646,0c0.705-1.172,2.682-3.762,0.955-4.487c-1.607-0.677-3.277-0.455-4.988-0.455
							c-2.73,0-5.842,2.132-8.309,3.194c-2.918,1.258-5.045,1.117-8.291,1.117c-3.326,0-2.627,1.774-4.883,3.818
							c-1.441,1.309-4.563,5.484-6.586,5.271c-2.76-0.287-5.645-0.332-8.332-1.043c-3.021-0.803-6.213-2.068-9.313-2.469
							c-2.898-0.375-5.521,0.389-8.293-0.69c-3.002-1.171-5.641-0.188-8.594-1.304c-4.193-1.584-8.09-4.162-11.791-6.66
							c-2.354-1.59-5.105-2.733-7.623-4.055c-1.953-1.023-4.115-0.18-6.064-2.015c-0.621-0.88-0.207-2.015-0.359-3.192
							c-0.469-3.644-2.043-6.633-1.869-10.289c0.141-2.914-0.18-6.283,0.504-9.125c1.057-4.375-0.957-8.347-0.211-12.727
							c0.656-3.859,11.371-7.08,14.434-8.457c-2.27-4.527-4.537-9.059-6.807-13.587c-2.059-4.11-1.775-11.065-2.496-15.634
							c-0.43-2.727-11.461-3.572-10.488-5.951c0.881-2.157,1.408-5.605,3.588-6.652c2.266-1.091,3.662-2.941,6.002-4.439
							c-2.59-2.233-6.861-4.785-6.809-8.375c0.064-4.332-2.205-8.973-4.074-12.788c4.242-1.261,4.176-1.509,5.734-5.671
							c1.109-2.959,2.822-4.135,3.637-7.336c0.607-2.383-0.607-4.42,1.051-6.051c2.635-2.593,5.27-5.187,7.904-7.777
							c1.637-1.605-1.484-3.184,1.559-3.193c3.51-0.013,7.02-0.023,10.529-0.037c7.879-0.027,15.756-0.058,23.635-0.086
							c5.512-0.02,11.52,2.754,16.795,4.2c5.248,1.44,10.545,1.416,15.9,2.282c2.861,0.462,5.717,0.931,8.563,1.467
							c1.92,0.361,3.84,0.725,5.76,1.084c1.238,0.232,0.869,2.648,0.982,3.758c0.205,1.979,9.521,6.262,11.928,8.079
							c6.527,4.937,13.053,9.869,19.58,14.806c2.924,2.209,2.553,1.615,5.455-1.031c1.426-1.303,2.988-1.43,4.361-2.92
							c5.461-5.933,10.922-11.862,16.383-17.793c2.119-2.301,4.234-4.603,6.354-6.901c1.119-1.216-0.318-4.382-0.709-5.94
							c-0.539,0.33-1.375,0.18-1.918,0.508c-0.225-1.016-0.344-4.238-1.082-4.887c-0.881-0.771-4.504-0.51-5.729-0.646
							c1.881-1.973,3.76-3.943,5.641-5.916c2.088-2.188,2.76,0.277,4.818-1.139c2.434-1.679,4.012-2.059,6.938-2.682
							c3.4-0.723,3.355-0.365,3.355-3.846c6.326,2.224,10.703,1.775,17.479,1.396c5.762-0.323,11.041,0.259,16.053-2.595
							c2.438-1.389,16.898-7.736,16.508-10.273c-0.344-2.213,0.352-5.604-2.227-5.522c-3.918,0.125-7.836,0.25-11.752,0.375
							c-3.887,0.124-7.771,0.247-11.658,0.372c-3.115,0.099-2.625-0.107-3.6-3.225c-0.758-2.426-2.623-5.865-2.58-8.418
							c0.023-1.4-0.732-8.513,0.26-9.189c2.813-1.915,5.621-3.829,8.432-5.743c2.125-1.447,5.789-0.854,8.271-0.987
							c1.621-0.087,3.242-0.174,4.861-0.261c0.994-0.054,0.369-2.147,0.838-2.147c3.234,0,6.467,0,9.701,0c4.158,0,8.314,0,12.475,0
							c1.854,0,4.459,6.672,5.357,8.225c1.947,3.369,4.051,1.585,7.773,0.809c2.023-0.423,4.049-0.846,6.072-1.269
							c0.996-0.208,0.344-3.07,0.313-3.99c9.191,0.229,18.385,0.456,27.574,0.685c0.447,0.01-0.709,3.809,0.742,4.099
							c1.814,0.362,5.705,0.34,7.172,1.435c1.482,1.104,2.66,4.299,3.629,5.86c1.568,2.534,2.654,2.935,0.078,4.955
							c2.789,2.952,5.578,5.903,8.369,8.854c0.799,0.846-2.795,9.475-3.156,10.655c-0.662,2.163-3.889,8.403-3.227,10.613
							c1.004,3.356,2.01,6.713,3.016,10.069c1.625,5.424,3.248,10.85,4.873,16.273c0.666,2.227,0.99,5.207,2.459,7.068
							c2.816,3.568,5.635,7.14,8.451,10.709c0.941,1.195,10.15-0.321,11.959-0.395c-2.91,2.471-5.82,4.938-8.73,7.408
							c-2.217,1.88,0.225,4.266,1.352,6.689c1.842,3.963,3.686,7.926,5.527,11.89c0.648,1.401-4.922,3.642-6.223,4.394
							c-0.898-1.726-0.844-3.324-2.73-2.379c-2.127,1.063-4.252,2.125-6.379,3.188c5.697,2.451-7.061,9.447-5.014,13.533
							c0.508,1.013-5.992,4.547-6.16,4.307c-1.74-2.479-2.088-5.121-4.984-3.707c-3.598,1.756-7.195,3.512-10.793,5.268
							c-1.057,0.516-2.113,1.031-3.172,1.549c-0.4,0.195-0.805-1.689-2.146-1.063c-3.342,1.563-3.758,2.879-6.543,5.13
							c-3.637,2.939-2.328,3.053,0.127,6.934c-6.734-0.25-16.527,1.563-21.881-2.791c-1.41-1.149-2.799-0.635-4.525-1.014
							c-1.967-0.433-3.949-1.455-5.836-2.15c-2.023-0.746-7.613-2.584-8.811-1.119c3.037,1.574,6.072,3.148,9.107,4.722
							c1.342,0.694,8.146,3.146,8.146,4.743c0,3.253,1.098,0.283,2.451,0.844c1.713,0.711,3.428,1.42,5.143,2.129
							s3.43,1.418,5.145,2.127c0.453,0.188-0.195,4.291-0.244,4.959c1.031,0.066,2.063,0.137,3.096,0.205
							c-2.018,1.889-2.982,2.854-2.4,5.68c0.379-0.106,0.756-0.215,1.133-0.321c0,2.687,0,5.37,0,8.055
							c-3.73-0.118-7.463-0.235-11.195-0.354c0.391,0.84,3.188,5.974,2.652,6.304c-2.795,1.731-5.59,3.465-8.385,5.196
							c-3.654,2.267-7.313,4.533-10.967,6.799c-2.854,1.771-2.148,1.992-1.43,5.471c-1.879,0.215-3.758,0.428-5.635,0.641
							c-0.566,0.063-1.902-0.024-2.422,0.272c-0.313,0.183,0.357,1.845-0.143,1.906c-2.627,0.327-7.926-0.114-10.004,1.53
							C218.176,293.253,211.565,298.485,204.956,303.718z"/>
					</defs>
					<clipPath id="SVGID_2_">
						<use xlink:href="#SVGID_1_"  overflow="visible"/>
					</clipPath>
					<g id="Annotations" clip-path="url(#SVGID_2_)">
						<g class="Industrial" id="Industrial" opacity="0.3">
							<path fill="#DD8C33" d="M316.299,161.14c1.082,1.369,2.166,2.741,3.25,4.112c-26.201,14.798-52.285,30.261-79.426,43.306
								c-5.16,2.479-21.658,3.031-24.002-2.328c-1.834-4.199-3.67-8.4-5.504-12.603c-1.023-2.347-3.02-4.004-0.473-5.138
								c8.35-3.717,16.699-7.434,25.049-11.148c0.84-0.371,5.496-3.222,6.377-2.838c3.838,1.673-2.807,5.84-4.125,6.557
								c2.379,3.371,4.758,6.74,7.139,10.111c2.307,3.268,5.709,0.217,9.145-1.082c7.492-2.829,14.926-5.796,22.369-8.749
								c6.748-2.677,13.271-5.269,19.715-8.591c3.674-1.895,7.785-3.518,11.236-5.796
								C310.114,164.933,312.325,161.272,316.299,161.14z"/>
							<path fill="#DD8C33" d="M263.069,159.069c-2.33,2.845-5.615,8.375-8.963,9.865c-4.498,2.004-8.996,4.008-13.496,6.01
								c-10.645,4.738-21.295,9.475-31.941,14.211c-2.658-6.094-5.318-12.186-7.979-18.279c7.844-1.188,13.768-2.781,18.549-8.799
								c5.336-6.715,10.674-13.43,16.01-20.143c1.1-1.383,1.07-2.281,2.516-1.23c3.172,2.307,6.342,4.611,9.512,6.917
								C252.53,151.442,257.709,155.396,263.069,159.069z"/>
							<path fill="#DD8C33" d="M236.788,139.989c-6.42,8.078-12.84,16.154-19.258,24.232c-2.922,3.676-7.799,4.666-12.271,5.748
								c-4.748,1.146-4.459,1.148-6.207-2.847c-0.688-1.573-1.254-4.351-2.764-5.005c15.891,0,24.836-15.868,30.764-27.926
								C230.305,136.11,233.549,138.047,236.788,139.989z"/>
							<path fill="#DD8C33" d="M196.899,162.2c1.262,2.89,2.527,5.779,3.789,8.67c-4.527,0.723-25.549-6.126-20.781-11.475
								c2.924-3.279,3.131-5.293,6.189-2.174C189.03,160.22,192.682,162.022,196.899,162.2z"/>
							<path id="Parkings2" fill="#DD8C33" d="M234.733,139.335c0.537-0.706,4.549-6.376,4.861-6.182
								c2.893,1.808,5.781,3.615,8.676,5.422c1.256,0.785,7.174,3.318,7.615,4.76c0.383,1.247-3.67,6.462-4.402,7.749
								C245.901,147.168,240.317,143.252,234.733,139.335z"/>
							<path id="Parkings3" fill="#DD8C33" d="M258.858,156.26c1.465-2.329,2.93-4.657,4.395-6.987
								c1.641-2.607,3.33-0.283,5.771,1.043c-1.637,2.092-3.273,4.185-4.91,6.275C261.852,159.478,261.831,158.388,258.858,156.26z"
								/>
							<g>
								<path fill="#DD8C33" d="M219.348,225.019c0.006,1.062,0.012,2.121,0.02,3.182c-6.229-0.186-10.293-2.569-15.877-4.998
									c-5.072-2.207-7.734,1.021-12.402,1.982c2.93-8.963-11.318-24.332-19.109-27.353c-10.328-4-22.406-4.919-22.271-19.343
									c14.203,6.826,28.473,13.506,42.893,19.931c6.65,2.966,13.307,5.919,19.967,8.864c1.988,0.88,4.229,0.316,4.623,2.703
									C217.991,214.854,219.374,220.071,219.348,225.019C219.348,225.37,219.358,223.05,219.348,225.019z"/>
							</g>
							<g>
								<path fill="#DD8C33" d="M219.399,230.21c0.115,9.626,0.266,19.253,0.229,28.88c-9.131-1.198-16.848-5.374-26.156-5.731
									c-0.961-0.037-10.787,0.199-10.873-1.075c-0.199-2.861,1.938-6.917,2.781-9.579c1.42-4.48,2.877-8.952,4.348-13.419
									c1.229-3.729,1.338-3.99,4.83-5.576c5.471-2.481,8.633-0.763,13.771,1.784c2.061,1.021,3.854,1.98,6.154,2.293
									C217.334,228.17,219.356,227.028,219.399,230.21C219.489,237.646,219.389,229.479,219.399,230.21z"/>
							</g>
							<path fill="#DD8C33" d="M242.768,278.03c-2.611,0.686-1.381,2.816-0.98,4.76c-1.938,0.223-3.877,0.441-5.814,0.663
								c-3.146,0.358-0.645,1.519-2.037,2.128c-1.467,0.645-8.668,1.836-9.49,0.576c-2.393-3.658-4.785-7.316-7.178-10.975
								c-0.545-0.834,1.4-5.406,1.623-6.392c0.725-3.238,0.746-6.397,0.746-9.702c4.307,0.658,9.027-2.12,13.373-0.182
								C237.817,261.058,241.237,273.541,242.768,278.03z"/>
							<path fill="#DD8C33" d="M216.918,208.349c5.58,0.854,11.281,1.699,16.939,1.631c-4.328,5.422-8.961,13.685-14.5,17.608
								C219.358,221.131,217.975,214.704,216.918,208.349C221.129,208.995,217.348,210.94,216.918,208.349z"/>
							<path fill="#DD8C33" d="M163.231,157.948c0.807-0.887,7.104-8.104,7.375-7.86c3.313,2.972,6.629,5.94,9.943,8.912
								c-1.156,1.188-5.977,7.358-7.188,6.462C169.987,162.957,166.608,160.453,163.231,157.948z"/>
							<path fill="#DD8C33" d="M163.231,157.948c0.807-0.887,7.104-8.104,7.375-7.86c3.313,2.972,6.629,5.94,9.943,8.912
								c-1.156,1.188-5.977,7.358-7.188,6.462C169.987,162.957,166.608,160.453,163.231,157.948z"/>
							<path fill="#DD8C33" d="M223.108,255.774c0.039-4.476,0.053-8.947,0-13.422c0.621,0.938,4.771,7.901,5.314,7.64
								c3.104-1.513,6.211-3.021,9.314-4.534c-3.188-2.561-6.379-5.12-9.568-7.68c-3.291-2.641-3.117-7.762-8.77-7.19
								c0.088,7.663,0.174,15.326,0.217,22.99c0.008,1.741-1.1,5.728,1.182,5.396c3.639-0.527,7.951-1.287,11.563-0.289
								C230.165,255.194,227.098,256.06,223.108,255.774z"/>
							<path fill="#DD8C33" d="M201.383,172.457c-1.242-2.845-7.367-1.579-10.578-2.94c-4.346-1.846-8.324-4.701-11.779-7.896
								c-1.129-1.047-8.549,7.919-10.104,9.417c-1.521,1.464-3.203,3.298-5.164,4.188c-0.924,0.42-2.607-1.228-2.568-1.279
								c-1.799,2.498-5.094,4.621-7.457,6.709c2.975,2.599,8.26,3.992,11.795,5.604c7.322,3.338,14.666,6.624,22.014,9.904
								c6.662,2.977,13.328,5.939,20,8.896c1.988,0.881,7.775,4.234,9.299,2.803C211.684,196.06,206.532,184.259,201.383,172.457z
								 M197.836,193.763c-2.85,0.625-4.672-1.816-6.861-3.476c0,1.249,0,2.499,0,3.747l-6.289-0.002
								c-2.723-0.49-10.545-8.873-11.494-11.561c-0.938-2.656,1.322-4.179,2.924-6.281c2.156-2.83,1.881-2.426-0.986-4.615
								c1.563-1.982,3.359-6.416,5.838-4.955c2.799,1.65,5.697,2.686,8.74,3.847c1.217,0.464,6.02,0.937,6.451,1.815
								c1.246,2.527,2.49,5.055,3.736,7.582c-1.521,0.666-3.039,1.332-4.559,1.998c-0.678,0.297-1.551-2.84-2.936-0.766
								c-0.418,0.624,2.512,3.997,3.033,4.434C196.917,186.778,203.52,192.515,197.836,193.763z"/>
						</g>
						<g id="Parks" opacity="0.3">
							<path fill="#4ABA5A" d="M163.231,157.948c-3.109,3.378-6.219,6.755-9.328,10.133c-1.662,1.804-3.322,3.607-4.982,5.41
								c-1.209,1.314-3.01,1.205-4.23,2.648c2.908,1.322,7.846,5.584,10.414,3.313c1.922-1.698,4.635-3.468,6.09-5.503
								c-1.277,1.787,3.979,0.762,4.449,0.396c3.125-2.43,5.752-5.578,8.387-8.508C170.27,163.462,166.926,160.431,163.231,157.948z
								"/>
							<path fill="#4ABA5A" d="M195.434,185.532c-0.521-0.438-3.451-3.811-3.033-4.434c1.385-2.076,2.258,1.062,2.936,0.764
								c1.52-0.666,3.037-1.332,4.559-1.998c-1.246-2.526-2.49-5.055-3.736-7.58c-0.432-0.881-5.234-1.354-6.451-1.816
								c-3.043-1.162-5.941-2.195-8.74-3.847c-2.479-1.46-4.275,2.974-5.84,4.956c2.869,2.188,3.145,1.783,0.988,4.613
								c-1.602,2.104-3.861,3.625-2.924,6.283c0.949,2.688,8.771,11.068,11.494,11.56l6.289,0.003c0-1.249,0-2.499,0-3.748
								c2.189,1.658,4.014,4.1,6.861,3.475C203.52,192.515,196.917,186.778,195.434,185.532z"/>
						</g>
						<g id="Center" opacity="0.3">
							<path id="center-main" fill="#D1C929" d="M227.049,134.2c-1.73,3.52-3.344,7.104-5.002,10.658
								c-1.65,3.529-5.949,6.688-8.598,9.527c-3.561,3.816-9.805,6.604-14.832,7.514c-6.445,1.162-10.795-3.191-15.07-6.646
								c0.307-0.395-4.639-5.025-5.164-5.568c-2.32-2.396-2.611-2.804-3.01-6.125c-0.359-3.01-2.559-4.679-3.242-7.582
								c-0.504-2.133,6.969-4.213,8.35-4.724c6.391-2.358,18.07-4.914,24.365-1.521c3.775,2.035,7.471,1.447,11.664,1.377
								C221.096,131.036,223.069,131.868,227.049,134.2z"/>
							<path id="center-sea" fill="#D1C929" d="M171.483,140.71c-2.211,0.063-1.893-1.798-2.293-3.604
								c-0.453-2.049-2.773-1.469-4.695-1.687c1.514-1.586,3.023-3.172,4.535-4.758c0.922-0.968,1.107-0.521,2.439-0.028
								c1.123,0.414,2.072-0.771,3.004-1.416c2.697-1.867,11.061-0.787,9.662-5.201c3.141,1.104,4.984,1.631,8.297,1.445
								c-0.031,2.809,0.904,3.344-2.17,3.557c-2.926,0.203-5.549,0.754-8.314,1.709c-2.748,0.951-5.508,2.01-8.09,3.357
								c-3.115,1.627-0.896,4.074,0.713,6.471c1.865,2.774,0.449,5.664,2.986,8.279c1.676,1.729,3.354,3.46,5.027,5.189
								c1.893,1.949-0.514,2.935-2.201,4.838c-3.285-2.947-6.572-5.896-9.859-8.842C173.368,146.94,174.032,144.582,171.483,140.71z
								"/>
						</g>
						<g id="Port" opacity="0.3">
							<path id="port-main" fill="#B6BDC6" d="M306.237,94.494c-1.07-1.937-2.807-7.367-4.656-8.427
								c-1.828-1.045-7.193,0.107-9.377,0.143c0.158-4.707,0.592-4.372-3.9-4.623c-5.578-0.313-11.156-0.625-16.732-0.938
								c-4.783-0.269-4.98-1.199-5.832,3.701c-0.262,1.51-10.646,2.299-12.398,2.604c-2.912,0.506-4.504-5.066-5.824-7.354
								c-1.977-3.418-4.646-2.219-8.553-2.219c-4.561,0-9.121,0-13.684,0c-1.135,0-0.203,2.051-0.957,2.09
								c-2.369,0.127-4.74,0.254-7.111,0.383c-4.281,0.229-5.779,0.196-9.242,2.561c-5.043,3.439-5.441,3.242-5.543,9.288
								c-0.068,3.937,1.24,7.166,2.422,10.942c1.236,3.961,2.689,2.713,6.799,2.582c5.199-0.164,10.396-0.33,15.6-0.494
								c4.525-0.145,5.732-1.475,6.443,3.115c0.74,4.771,1.057,4.424-2.984,6.723c-4.746,2.701-9.49,5.402-14.234,8.102
								c-3.779,2.15-6.973,1.633-11.395,1.669c-6.016,0.054-12.031,0.104-18.047,0.155c0.455,1.283,3.994,2.283,4.973,3.468
								c1.629,1.976,7.551,0.599,10.42,0.913c2.188,0.238,3.775,2.137,5.975,2.309c2.688,0.211,5.436-0.021,8.129-0.065
								c7.447-0.125,12.938,4.577,19.102,8.385c1.289-2.134,2.578-4.269,3.867-6.401c5.432,3.395,10.861,6.789,16.293,10.184
								c0.268,0.167-3.715,6.796-4.172,7.6c-0.314,0.555,6.275,4.741,7.199,5.395c0.881-1.354,4.145-8.285,5.523-8.487
								c2.83-0.414,3.705,5.181,5.955,1.839c5.262-7.813,10.521-15.628,15.781-23.439c2.912-4.328,5.611-8.754,8.412-13.149
								C298.293,107.056,301.981,98.659,306.237,94.494z"/>
							<g id="port-parking">
								<path fill="#B6BDC6" d="M305.508,99.271c2.592,1.734,11.986,5.826,10.348,8.849c-3.172,5.846-6.346,11.692-9.518,17.538
									c-1.746-1.227-14.107-9.1-13.492-10.084c3.689-5.911,7.076-12.184,11.34-17.695
									C304.598,98.312,305.227,98.749,305.508,99.271z"/>
							</g>
							<path id="port-ankaran" fill="#B6BDC6" d="M306.239,94.5c-1.098-1.992-2.766-7.288-4.646-8.431
								c-1.926-1.168-7.297,0.072-9.391,0.141c0.07-1.982,0.502-3.536-0.613-4.461c-1.131-0.936-5.961-0.322-7.514-0.41
								c-2.773-0.156-5.549-0.324-8.324-0.488c-1.793-0.104-6.697-1.332-8.32-0.488c-1.859,0.963-0.277,3.033-1.771,4.449
								c-1.346,1.274-7.094,1.232-8.91,1.549c-2.541,0.44-4.336,1.715-5.668-0.59c-1.488-2.578-2.98-5.154-4.473-7.729
								c3.973-0.142,6.686,0.173,9.84-1.851c0.547-0.351,1.514-0.037,2.064-0.379c0.334-0.209-0.018-1.75,0.33-1.9
								c1.771-0.771,5.178-0.223,7.115-0.307c2.076-0.088,0.869-1.467-0.275-2.154c-2.074-1.241-2.887-0.832-4.881-1.518
								c-3.127-1.074-4.729-1.744-8.256-1.638c-2.768,0.083-24.857,1.5-24.912,0.086c-0.143-3.608-6.5-1.72-9.564-1.629
								c-3.877,0.114-6.568,0.233-9.699-0.844c-1.066-0.368,4.865-18.392,6.73-20.803c1.145-1.48,3.135-1.305,4.834-1.41
								c2.234-0.139,2.422-1.571,3.582-3.48c1.592-2.615,6.541-1.141,9.428-1.797c7.963-1.812,15.945-1.829,24.105-2.245
								c3.762-0.191,7.521-0.384,11.283-0.576c1.482-0.076,3.1-6.99,1.463-8.091c-1.211-0.813-2.314-1.124-3.836-0.644
								c-0.943-2.807,1.773-2.282,3.742-2.53c0.113-1.708-3.91-7.283-0.592-8.925c4.301-2.128,8.604-4.256,12.902-6.384
								c6.051-2.993,13.777-2.76,20.295-2.74c-0.039,3.738-0.078,7.476-0.117,11.214c-0.035,3.278,0.723,2.406,3.934,2.492
								c7.291,0.197,14.596,0.289,21.883,0.604c-0.066,2.432-2.285,1.764-2.605,3.905c-0.42,2.833-0.838,5.666-1.258,8.499
								c-0.75,5.067-1.699,10.147-2.256,15.239c-2.041,18.65-5.854,34.596-17.689,49.647
								C302.961,96.595,305.139,95.571,306.239,94.5z"/>
						</g>
						<g id="Hills" opacity="0.3">
							<path fill="#8DC493" d="M219.629,227.59c3.838-4.743,7.674-9.487,11.51-14.231c3.268-4.043,6.619-3.588,11.193-5.883
								c13.084-6.563,25.939-13.604,38.816-20.56c9.799-5.293,19.418-10.938,29.115-16.415c2.91-1.645,8.135-6.708,10.529-3.674
								c1.182,1.494,3.295,5.757,5.338,5.675c2.891-0.114,5.779-0.229,8.672-0.347c-2.58,2.191-5.162,4.384-7.742,6.574
								c-1.324,1.125,1.264,4.576,1.895,5.934c1.705,3.671,3.412,7.343,5.119,11.016c1.264,2.721-1.748,3.004-4.086,4.356
								c-1.234-3.125-1.389-2.979-4.092-1.63c-2.439,1.221-4.879,2.439-7.318,3.66c7.17,2.887-6.523,9.115-4.559,13.049
								c0.717,1.438-1.928,2.257-3.094,3.013c-1.633,1.06-1.406,0.517-2.51-1.058c-2.363-3.371-2.096-2.793-5.734-1.018
								c-3.684,1.797-7.363,3.592-11.043,5.387c-1.232,0.601-1.035,0.553-1.904-0.608c-0.607-0.81-2.496,0.631-3.277,0.993
								c-2.984,1.392-2.938,2.627-5.465,4.67c-3.705,2.996-3.643,2.544-1.063,6.609c-3.949-0.146-7.9-0.291-11.852-0.438
								c-1.705-0.063-3.412-0.125-5.117-0.188c-1.254-0.047-2.385-2.342-3.557-2.795c-3.188-1.23-7.242-1.563-10.652-2.818
								c-2.482-0.916-8.717-3.02-9.367,0.658c3.662,1.898,17.604,6.588,17.604,10.635c0,0.087,6.654,1.666,8.049,2.24
								c4.99,2.063,4.775,1.715,4.371,7.153c0.619-0.073,1.283,0.21,1.9,0.132c-2.07,1.637-1.432,3.879-0.891,6.082
								c0.293-0.084,0.588-0.168,0.883-0.25c0,1.896,0,3.795,0,5.692c-2.676-0.086-5.352-0.173-8.023-0.259
								c-3.623-0.117-2.727-1.95-6.518-2.58c-2.357-0.391-4.906,1.251-7.029-0.172c-1.102-0.729-2.09-1.661-3.078-2.53
								c-2.869-2.524-5.664-5.14-8.443-7.767c-3.246-3.065-7.684-5.233-10.607-8.582c-2.311-2.645-2.156-5.198-5.842-6.516
								C219.778,230.099,218.301,230.013,219.629,227.59z"/>
							<path fill="#8DC493" d="M217.17,275.036c-3.443,11.094-10.48,17.133-18.773,24.896c2.338,0.963,5.359,3.448,7.504,1.752
								c4.023-3.184,8.047-6.365,12.07-9.551c1.094-0.863,7.314-4.688,6.471-5.979C222.016,282.448,219.594,278.742,217.17,275.036z
								"/>
							<path fill="#8DC493" d="M219.633,259.084c-2.021-0.251-4.039-0.524-6.059-0.793c-6.457-0.854-11.684-4.562-18.506-4.871
								c-1.092-0.049-11.414,0.021-12.375-1.171c-0.178,0.645-0.354,1.288-0.531,1.932c-0.42,1.518-6.941-0.488-8.291-0.718
								c-6.02-1.017-12.037-2.03-18.057-3.049c-4.193-0.708-0.822-9.603-0.41-13.026c0.369-3.055,7.896-2.623,10.953-3.232
								c2.592-0.514,5.018-1.391,7.398-2.53c5.271-2.524,5.537-6.022,7.51-11.403c0.342,0.115,0.828,0.239,1.383,0.375
								c-1.605-0.482-3.225-0.916-4.855-1.271c-1.113-0.241-3.906-1.091-4.885-0.048c-1.564,1.676-0.768,5.494-3.08,6.477
								c-3.852,1.637-5.895-3.919-8.063-5.768c-2.566-0.107-5.117-0.729-7.584-1.4c-6.354-1.727-12.537-4.132-18.576-6.732
								c-2.848-1.229-10.928-3.371-11.73-7.06c-0.67-3.084,0.686-6.237-2.791-7.767c-2.672-1.174-5.678-1.674-8.545-2.118
								c-9.992-1.55-19.857,1.937-29.74,3.253c-6.145,0.82-12.24-1.617-17.08-5.157c-3.695-2.7-7.344-5.468-10.99-8.233
								c-4.998,1.416-9.996,2.838-14.994,4.264c-9.322,2.66-19.547,6.961-29.295,8.025c-3.115,5.437-2.646,5.555,2.701,7.795
								c5.686,2.383,5.186,2.51,6.145,8.6c0.641,4.047,0.695,8.529,2.555,12.218c2.104,4.173,4.205,8.343,6.311,12.515
								c-5.654,2.535-15.533,4.559-14.709,11.863c0.75,6.661-0.141,12.831-0.455,19.635c-0.115,2.494,1.643,11.184,3.383,12.026
								c2.93,1.418,5.965,1.697,9.064,3.322c6.42,3.368,12.326,9.36,19.939,8.448c2.227-0.268,4.969,1.727,7.498,1.727
								c3.412,0,5.857,0.516,9.174,1.395c3.523,0.935,6.646,1.537,10.273,1.914c3.57,0.367,5.064-2.246,7.691-4.629
								c2.73-2.478,1.545-4.263,5.658-4.263c3.215,0,5.285,0.129,8.182-1.117c3.309-1.424,6.213-3.19,9.818-3.19
								c2.996,0,7.525,0.916,4.436,4.949c3.166,0,6.17-0.305,9.182,0.678c4.205,1.371,4.727,1.377,8.783-0.228
								c2.752-1.086,6.205-1.854,8.592-3.646c1.943-1.459,5.436-5.389,7.865-5.6c4.34-0.377,6.227-1.813,9.93-4.217
								c2.49-1.615,5.314-1.906,8.205-2.568c3.992-0.914,14.896-5.771,16.57-2.422c1.801,3.601,6.396,0.432,8.551,2.791
								c1.248,1.363-0.766,2.528,1.33,3.926c1.523,1.013,1.453,1.428,1.861,3.238c0.291,1.289,3.021,2.455,4.066,3.178
								c1.859,1.283-0.492,1.455,0.344,2.838c0.609,1.014,1.943,0.586,2.648,2.045c0.73,1.506,1.252,2.029,0.828,3.591
								c-0.258,0.95-1.861,4.653-0.877,5.062c3.25,1.35,3.504-0.019,6.148-2.516c4.184-3.956,9.375-7.975,11.947-13.259
								c2.564-5.269,4.416-11.306,5.311-17.099C219.743,263.771,219.633,261.39,219.633,259.084z"/>
						</g>
						<g id="Residential" opacity="0.3">
							<path id="Markovec" fill="#B596B5" d="M63.799,141.86c5.484,1.506,11.076,3.602,16.68,4.58
								c7.188,1.256,14.514,1.108,21.727,2.643c2.523,0.537,4.496,0.258,4.578,2.98c0.057,1.849,0.002,1.699,1.52,2.642
								c2.643,1.644,5.541,3.122,8.023,5c4.914,3.717,9.828,7.435,14.742,11.147c-11.623-0.824-21.965-0.979-33.205,1.978
								c-8.129,2.137-16.229,4.39-24.324,6.649c-4.709,1.313-9.416,2.639-14.121,3.967c-3.125,0.884-3.959,1.882-6.674-0.176
								c-1.742-1.32-3.482-2.645-5.229-3.963c-6.318-4.779-13.912-6.508-21.656-7.5c-4.43-0.566-6.531-1.363-10.348,0.784
								c-1.602,0.901-2.611,1.72-4.42,1.726c-3.059,0.008-2.668-0.627-3.977-3.403c4.105-1.226,3.879-2.247,5.393-6.283
								c1.135-3.028,2.83-4.306,3.715-7.776c0.922-3.623-0.457-3.858,2.512-6.789c2.375-2.344,6.369-4.692,6.369-8.158
								C25.104,141.088,59.073,140.03,63.799,141.86z"/>
							<path id="Semedela" fill="#B596B5" d="M190.809,218.21c0.852,1.625,0.885,3.734,0.76,5.521
								c-4.82-1.855-9.816-3.742-14.918-4.629c-2.578-0.449-4.064-0.389-4.807,2.451c-1.088,4.156-3.896,6.201-7.268,1.971
								c-2.688-3.375-3.506-3.34-7.576-4.236c-4.135-0.912-8.174-2.271-12.143-3.732c-6.408-2.357-13.023-4.896-18.943-8.343
								c-3.256-1.896-1.406-5.58-2.684-8.547c-1.115-2.58-6.883-3.103-9.178-3.506c-5.922-1.044-10.584-0.542-16.486,0.483
								c-6.629,1.15-13.947,3.496-20.689,2.219c-8.844-1.68-15.145-7.778-22.145-13.088c16.873-4.778,33.738-9.936,50.832-13.885
								c10.184-2.354,23.385-1.639,32.965,2.502c3.76,1.625,7.498,3.316,11.188,5.098c1.221,1.852,0.467,5.652,1.883,7.986
								c1.822,3.006,3.646,5.729,6.939,7.139c5.701,2.439,12.922,2.951,17.738,6.918C182.067,205.3,187.286,211.565,190.809,218.21
								C191.858,220.21,189.749,216.21,190.809,218.21z"/>
							<path fill="#C48DC6" d="M230.858,256.335c-2.494-0.182-4.988-0.359-7.484-0.541c-0.637-0.047-0.25-12.21-0.266-13.439
								c0.621,0.938,4.771,7.901,5.314,7.64c1.922-0.937,7.313-4.892,9.314-4.534c2.486,0.441,6.996,6.521,8.924,8.221
								c1.9,1.672,3.824,3.809,6.611,2.862c2.354-0.798,6.723-0.536,7.205,2.327c-0.316-0.01-0.633-0.021-0.949-0.03
								c1.021,2.204,2.041,4.407,3.063,6.611c0.268,0.575-3.854,2.688-4.393,3.022c-5.143,3.188-10.287,6.375-15.43,9.563
								C240.141,270.331,235.256,263.133,230.858,256.335z"/>
							<path id="Gardens" fill="#B596B5" d="M188.155,255.149c-0.422-2.744-0.799-5.516-0.93-8.289
								c-0.184-3.873,1.242-3.668,4.85-3.729c2.488-0.041,6.455,0.112,6.455,3.893c0,2.123-1.699,2.313-1.184,4.603
								c0.313,1.401,0.729,2.787,1.184,4.147"/>
							<path fill="#B596B5" d="M173.756,231.624c-2.381,1.141-4.807,2.018-7.396,2.531c-3.057,0.607-10.586,0.178-10.953,3.232
								c-0.412,3.424-3.785,12.317,0.41,13.025c6.018,1.018,12.037,2.031,18.055,3.049c1.35,0.229,7.873,2.234,8.291,0.719
								c0.178-0.645,0.355-1.287,0.533-1.933c-0.059-0.071-0.086-0.147-0.072-0.229c0.139-0.789,0.887-3.233,1.891-6.371
								c0.539-1.957,1.078-3.914,1.617-5.869c1.4-5.088,2.803-10.176,4.205-15.264c0.16-0.582-0.139-1.084-0.701-1.523
								c-2.299-0.863-4.627-1.686-6.984-2.396c-0.557-0.136-1.043-0.26-1.385-0.375C179.295,225.601,179.03,229.099,173.756,231.624
								z"/>
							<path fill="#BB9FBC" d="M13.708,194.47c1.521-0.971,3.043-1.939,4.564-2.91c-2.111-1.785-4.211-3.613-6.131-5.604
								c-2.514-2.604-2.166-8.072-3.564-11.64c4.184-0.012,6.035-1.225,9.73-3.303c2.111-1.189,8.791,0.945,11.195,1.256
								c10.27,1.314,17.178,6.412,25.227,12.496c-10.563,2.993-21.119,6.01-31.67,9.041c-4.086,1.174-8.404,2.789-12.619,3.248
								C11.975,196.653,13.37,195.97,13.708,194.47z"/>
						</g>
						<g id="Zatok" opacity="0.3">
							<path fill="#6B81D1" d="M305.649,99.181c7.354,4.926,14.621,10.004,21.77,15.225c3.807,2.779,7.689,5.554,11.176,8.736
								c3.301,3.016,4.313,8.045,5.791,12.106c1.27,3.485,2.51,6.981,3.738,10.479c1.193,3.396,0.82,2.922-2.078,4.561
								c-3.402,1.925-6.811,3.85-10.215,5.771c-4.398,2.484-8.801,4.973-13.201,7.459c-1.002,0.564-2.004,1.133-3.008,1.697
								c-0.486,0.275-2.645-3.857-3.311-4.064c-2.945-0.916-7.215,4.146-9.033,5.631c-2.822,2.308-7.045,3.705-10.27,5.371
								c-6.463,3.338-12.859,6.017-19.631,8.701c-7.057,2.799-14.096,5.646-21.195,8.328c-1.004,0.379-9.938,4.354-10.365,3.746
								c-2.668-3.779-5.336-7.563-8.002-11.341c-0.121-0.172-0.242-0.344-0.363-0.517c2.396-1.283,6.766-3.623,4.127-6.561
								c4.748-2.113,11.273-3.527,14.561-7.675c4.262-5.379,8.914-10.606,12.836-16.237c7.984-11.471,15.902-22.947,23.609-34.604
								c4.584,3.226,9.17,6.446,13.754,9.671c1.799-5.859,3.596-11.721,5.395-17.581C312.733,104.821,307.53,101.25,305.649,99.181
								C306.649,99.851,305.639,99.17,305.649,99.181z"/>
						</g>
						<g id="Roads" opacity="0.8">
							<path fill="none" d="M227.448,135.526c-5.789,12.377-14.279,25.22-29.219,27.381c0.746,1.707,1.492,3.416,2.238,5.123
								c1.51,3.461,6.398,0.632,9.4-0.387c4.193-1.424,5.574-2.309,8.17-5.574c5.783-7.274,11.564-14.551,17.35-21.825
								C232.743,138.665,230.1,137.088,227.448,135.526z"/>
							<path fill="none" d="M325.516,15.665c0.152,0.031,0.838,0.254,0.906,0.161C326.124,15.772,325.813,15.724,325.516,15.665z"/>
							<path fill="none" d="M199.223,170.127c-0.086,0.015-2.545-6.071-2.875-6.826c-0.238-0.545-5.543-1.452-6.564-1.985
								c-2.297-1.199-4.361-2.861-6.119-4.758c-1.297,1.49-2.602,2.978-3.928,4.441
								C184.731,165.573,192.055,171.001,199.223,170.127C199.258,170.122,191.313,171.091,199.223,170.127z"/>
							<path fill="none" d="M214.096,206.933c0.471,0.08,0.941,0.158,1.414,0.237c-3.805-8.709-7.607-17.418-11.41-26.126
								c-0.83-1.896-2.236-7.93-3.994-9.145c-8.08,1.133-15.969-4.269-21.629-9.502c-3.945,4.428-8.736,11.082-14.314,13.697
								c-1.068,0.502-2.854-0.871-3.02-0.724c-1.932,1.702-3.859,3.407-5.789,5.11C174.522,190.078,194.497,198.272,214.096,206.933
								C214.303,206.97,192.75,197.501,214.096,206.933z"/>
							<path fill="none" d="M325.667,16.068c0.018,0.004,0.031,0.003,0.051,0.007L325.667,16.068z"/>
							<path fill="none" d="M325.452,15.654C325.458,15.655,325.542,15.67,325.452,15.654L325.452,15.654z"/>
							<path fill="none" d="M184.385,154.543c8.74,10.091,21.604,6.476,29.844-2.369c3.25-3.485,18.18-19.207,6.604-20.081
								c-4.125-0.313-8.273,0.313-12.398,0.028c-3.229-0.222-5.539-2.405-8.971-2.448c-8.697-0.107-16.008,0.982-23.9,4.637
								c-3.496,1.617-2.281,2.61-0.207,5.709c1.184,1.769,1.039,4.086,1.287,6.16C176.965,148.856,182.618,152.422,184.385,154.543z
								"/>
							<path fill="none" d="M218.053,209.47c0.854,5.191,2.063,10.533,2.229,15.809c3.877-4.795,7.756-9.59,11.633-14.385
								C227.274,210.753,222.641,210.153,218.053,209.47C219.118,215.942,222.329,210.106,218.053,209.47z"/>
							<path fill="none" d="M201.106,221.304c6.25,1.703,10.646,5.514,17.311,5.907c-0.008-3.035-0.41-5.953-0.865-8.96
								c-0.459-3.031-0.027-8.822-3.242-9.372c-0.975-0.165-1.791-0.588-2.693-0.985c-7.178-3.174-14.354-6.358-21.521-9.557
								c-13.242-5.902-26.457-11.831-39.402-18.318c0.725,12.76,12.156,13.473,21.449,16.871
								c8.434,3.084,20.939,17.659,20.381,26.762C194.874,222.438,198.352,220.556,201.106,221.304
								C203.104,221.849,198.807,220.679,201.106,221.304z"/>
							<path fill="none" d="M339.618,125.625c-2.328-4.581-9.998-8.47-13.979-11.356c-6.639-4.818-14.508-8.963-20.623-14.397
								c-10.771,16.714-21.643,33.131-33.006,49.448c-3.705,5.32-7.24,10.427-11.512,15.287c-4.711,5.358-8.641,6.799-15.25,9.74
								c-9.793,4.357-19.586,8.717-29.381,13.073c-0.83,0.37-5.451,1.688-5.803,2.583c-0.705,1.789,4.365,9.999,5.154,11.805
								c2.482,5.688,1.973,5.754,8.57,6.533c5.621,0.665,11.41,1.594,16.625-0.961c9.68-4.738,19.146-9.938,28.645-15.027
								c14.84-7.955,29.453-16.295,44.113-24.576c9.508-5.369,19.016-10.737,28.521-16.106c2.096-1.185,4.164-2.335,6.324-3.396
								C345.405,140.804,343.225,132.703,339.618,125.625C338.147,122.729,340.618,127.587,339.618,125.625z"/>
							<path fill="none" d="M218.456,230.601c0.232-2.459-2.436-1.64-4.383-1.925c-2.561-0.376-4.666-1.61-6.961-2.737
								c-2.08-1.021-5.131-3.129-7.564-2.867c-2.594,0.279-5.611,2.686-7.646,2.642c-2.852,8.599-6.199,17.269-8.273,26.099
								c5.85,1.334,12.145,0.188,18.064,1.244c5.945,1.059,10.889,4.157,16.996,4.961
								C218.69,248.877,218.563,239.737,218.456,230.601z"/>
							<path fill="none" d="M189.977,218.646c-3.596-6.764-9.164-13.771-15.416-18.252c-5.189-3.722-12.744-3.625-18.418-6.867
								c-2.646-1.51-4.465-5.008-5.939-7.563c-0.967-1.678-1.254-3.647-1.381-5.55c-0.156-2.333-2.699-2.615-4.691-3.491
								c-4.285-1.884-8.561-4.315-13.131-5.135c-9.293-0.653-18.727-1.627-27.838,0.647c-15.543,3.881-30.945,8.363-46.357,12.725
								c4.223,3.197,8.404,6.844,12.979,9.552c7.016,4.149,15.365,2.171,22.777,0.86c7.564-1.342,32.305-6.451,32.133,6.961
								c-0.063,4.818,6.055,6.134,9.764,7.779c6.836,3.031,13.889,5.879,21.156,7.695c2.535,0.635,6.125,0.26,7.836,2.396
								c1.965,2.459,5.943,7.609,7.258,1.851c1.977-8.594,14.619-1.918,19.951,0.115
								C190.692,221.082,190.463,219.84,189.977,218.646C189.338,217.444,190.495,219.634,189.977,218.646z"/>
							<path fill="#FCFCFC" d="M652.67,289.914c-4.707-2.656-8.99-5.875-13.598-8.62c-4.5-2.684-8.77-4.438-12.846-7.729
								c-7.744-6.25-15.416-12.475-23.438-18.364c-13.18-9.681-25.059-20.896-37.984-30.946c-5.912-4.595-11.813-6.592-18.867-9.339
								c-6.838-2.661-12.766-5.882-19.348-9.054c-6.686-3.219-13.514-7.645-20.73-9.443c-4.201-1.048-9.123-3.029-13.504-2.598
								c-4.662,0.462-9.838,2.232-14.496,1.881c-3.182-0.241-6.742-1.018-9.92-0.701c-3.449,0.346-7.311,1.296-10.764,0.991
								c-8.955-0.79-17.91-1.597-26.865-2.413c-11.82-1.079-23.645-2.141-35.449-3.379c-5.996-0.631-11.5-1.801-16.918-4.652
								c-6.348-3.341-9.938-5.734-12.332-12.307c-1.711-4.7-5.387-8.77-8.35-12.729c-1.561-2.084-3.135-4.158-4.721-6.227
								c-0.514-0.667-0.799-1.023-1.074-1.827c-1.283-3.71-0.846-3.374,2.639-5.089c7.516-3.699,15.027-7.398,22.531-11.119
								c3.854-1.91,8.877-3.518,12.26-6.236c6.713-5.396,13.463-12.713,18.512-19.707c3.188-4.42,6.654-9.934,11.266-13
								c4.871-3.244,9.949-6.197,14.957-9.22c2.215-1.336,4.428-2.68,6.652-3.995c-0.166-0.49-0.598-1.25-0.965-1.613
								c-7.266,4.34-14.643,8.574-21.688,13.265c-4.227,2.813-7.443,7.628-10.42,11.644c-3.174,4.278-6.689,8.068-10.363,11.945
								c-6,6.331-10.229,9.863-17.889,13.671c-9.734,4.837-19.488,9.636-29.242,14.435c-2.564-7.324-4.928-14.838-8.082-21.938
								c-1.461-3.285-5.48-5.678-8.217-7.781c-8.398-6.464-17.148-12.484-25.922-18.426c-0.365-0.249-1.938-1.061-2.029-1.533
								c2.072-2.689,4.016-5.482,5.807-8.365c5.447-8.765,8.271-17.785,9.973-27.913c1.445-8.618,2.191-17.387,3.475-26.043
								c0.563-3.809,1.127-7.615,1.689-11.423c-0.109,0.745,2.322-2.136,2.109-1.732c0.746-1.41,0.385-3.135-0.121-4.535
								c-0.979-2.702-1.822-2.858-1.338-5.617c0.424-2.419,0.848-4.839,1.273-7.259c0.623-3.563,1.725-2.187,5.361-1.559
								c5.104,0.879,10.186,1.884,15.287,2.754c15.619,2.663,30.748,1.435,46.48,2.684c2.275,0.182,4.57,0.679,6.832,1.015
								c2.902,0.431,3.17,2.769,4.844,5.112c2.342,3.28,6.443,4.842,9.246,7.706c2.414,2.47,4.732,5.034,7.063,7.581
								c3.605,3.938,6.082,8.827,9.855,12.548c1.896,1.872,4.717,4.296,5.309,7.006c0.514,2.341-0.262,8.126,2.986,7.104
								c-0.424-3.479-0.439-7.632-2.617-10.526c-2.248-2.984-5.098-5.361-7.229-8.432c-4.348-6.251-9.195-11.902-14.672-17.243
								c-4.121-4.029-8.152-5.943-11.074-11.155c3.617-2.533,9.307-7.578,14.014-4.651c3.213,1.993,5.986,5.463,8.678,8.073
								c1.75,1.696,7.855,9.871,9.604,6.78c-3.395-3.355-6.797-6.698-10.234-10.006c-3.365-3.235-7.588-8.832-12.992-7.483
								c-5.309,1.322-8.131,6.38-13.654,5.562c-2.82-0.418-5.496-0.856-8.334-0.896c-16.334-0.22-31.662-0.257-47.715-3.317
								C331.239,0.836,316.731,0,302.743-3.205c-9.826-2.252-16.879-6.427-25.645-11.448c-3.387-1.94-7.291-3.654-10.342-6.117
								c-5.896-4.757-11.16-12.081-17.869-15.656c-4.307-2.289-14.277-3.854-16.828-8.139c-4.135-6.951-4.014-15.229-12.318-18.456
								c-5.623-2.187-14.305-2.521-19.029-6.154c-5.174-3.976-9.975-8.422-15.158-12.382c-2.689-2.053-6.902-2.704-10.053-3.72
								c-2.352-0.759-10.291-4.674-11.109-2.067c-0.262,0.83,14.398,5.108,16.42,5.785c5.104,1.708,8.826,5.742,12.93,9.139
								c5.02,4.152,8.01,5.919,14.238,7.661c4.027,1.127,13.18,2.317,15.73,6.077c3.031,4.484,3.531,13.974,8.479,16.799
								c5.492,3.137,12.586,4.277,17.432,8.366c8.398,7.084,15.541,14.188,25.063,19.647c5.869,3.367,12.342,8.603,18.938,10.35
								c11.088,2.937,22.016,3.99,33.281,5.727c-0.744,4.232-1.848,9.902-2.354,13.479c0.414,0.033,0.895,0.234,1.303,0.22
								c-0.451-0.066-0.902-0.132-1.355-0.198c1.611,0.382,2.637,2.94,2.563,4.869c-0.049,1.791-2.254,1.475-2.51,3.203
								c-0.713,4.813-1.428,9.624-2.141,14.436c-1.141,7.71-1.754,15.514-3.053,23.19c-2.66,15.711-10.365,28.751-18.576,41.6
								c-4.424,6.921-8.598,14.07-13.293,20.812c-9.465,13.588-18.256,27.941-29.166,40.416c-4.471,5.109-10.002,6.701-16.242,9.479
								c-9.547,4.248-19.094,8.497-28.641,12.745c-1.377,0.613-2.754,1.227-4.129,1.838c-2.43-5.561-4.857-11.119-7.285-16.682
								c7.074-1.236,12.996-2.709,17.389-8.236c5.148-6.479,10.297-12.956,15.445-19.434c0.723-0.909,1.557-3.049,2.68-2.229
								c2.639,1.916,5.273,3.833,7.908,5.75c5.41,3.937,10.82,7.868,16.23,11.804c2.498-2.055-1.68-3.541-3.314-4.73
								c-4.602-3.346-9.201-6.688-13.803-10.035c-6.963-5.063-14.268-10.625-22.201-13.997c-5.49-2.373-11.865,0.983-17.568-1.846
								c-4.902-2.433-14.814-1.2-19.928,0.204c-3.096,0.851-12.125,2.763-13.592,6.047c-0.91,2.02,1.873,5.266,2.932,6.771
								c0.512,1.555-0.287,4.767,0.91,5.985c1.137,2.151,7.184,5.198,7.271,7.502c-4.293,4.925-8.641,9.828-13.295,14.415
								c-2.684,2.643-4.182,5.355-7.283,3.6c-2.57-1.457-6.207,7.34-8.883,5.889c-7.359-3.992-15.965-8.782-24.387-9.319
								c-10.322-0.657-19.557-0.772-29.506,1.815c-7.557,1.966-15.084,4.053-22.605,6.146c-5.422,1.509-10.84,3.029-16.254,4.56
								c-5.248,1.479-5.396,1.369-9.438-1.69c-9.527-7.229-19.051-8.958-30.666-10.446c-3.668-0.472-6.006,3.246-9.688,3.26
								c-5.645,0.021-11.365-0.487-16.99-0.221c-6.352,0.305-16.068-0.063-17.676,7.436c-0.895,4.119-0.779,5.259-5.031,4.105
								c-2.521-0.684-11.365-5.24-11.67-1.689c2.934,1.016,15.182,7.016,17.18,2.832c1.934-4.045,0.412-7.654,5.186-9.061
								c9.186-2.697,18.969-1.482,28.404-1.52c3.393-0.014,5.047-1.205,8.064-2.903c2.492-1.401,7.305,0.308,10.033,0.655
								c10.09,1.291,16.889,5.395,24.777,11.365c-10.947,3.105-21.887,6.234-32.822,9.387c-2.506,0.722-9.291,1.104-9.396,3.395
								c-0.035-0.346-0.07-0.689-0.105-1.035c-18.219,1.86-37.406,4.16-51.842,16.563c1.453,3.166,6.939-2.741,8.834-3.879
								c6.129-3.683,12.564-5.97,19.537-7.382c6.191-1.254,12.461-2.135,18.734-2.883c1.721-0.207,5.283,0.562,4.854-1.783
								c0.041,0.41,0.084,0.818,0.127,1.229c8.342-1.177,16.809-4.444,24.857-6.747c4.67-1.337,9.338-2.668,14.01-3.994
								c3.338-0.949,4.295-2.045,7.197,0.146c1.688,1.275,3.379,2.55,5.074,3.816c2.594,1.935,5.275,4.469,8.336,5.681
								c14.975,5.926,29.938-3.687,45.301-0.533c1.617,0.332,6.211,0.827,7.012,2.681c1.098,2.533-0.627,6.307,1.936,8.227
								c3.895,2.92,9.102,4.695,13.551,6.543c6.021,2.501,12.211,4.859,18.582,6.313c3.889,0.887,4.773,0.693,7.412,3.985
								c2.365,2.954,7.098,4.22,8.402-0.257c0.855-2.932,0.746-4.46,4.105-3.859c4.029,0.721,7.982,2.086,11.824,3.471
								c4.021,1.449,0.324,6.551-0.809,10.016c-1.451,4.441-2.896,8.887-4.254,13.357c-1.207,3.979-2.918,6.656,2.221,7.092
								c9.361,0.793,16.51,0.826,25.283,4.521c2.521,1.062,5.385,1.12,8.07,1.474c-0.008,2.934-0.08,5.683-0.723,8.545
								c-1.355,6.053-3.084,13.41-7.309,18.162c-10.787,12.139-24.613,20.98-32.621,35.43c-5.674,10.236-9.947,21.123-14.582,31.848
								c-0.887,2.051-6.566,10.412-2.895,11.139c5.41-11.344,9.68-23.193,15.188-34.492c6.035-12.379,13.283-20.571,23.275-29.911
								c-0.217-0.229-0.432-0.461-0.646-0.69c0.031,0.049,0.633,0.604,0.656,0.682c11.102-10.389,20.961-20.481,21.48-36.75
								c0.078-2.465-0.994-3.803,1.861-4.164c1.885-0.238,3.781-0.407,5.684-0.445c2.498-0.051,4.531-0.121,5.936,2.096
								c3.92,6.188,7.563,13.764,9.023,20.98c1.307,6.455-2.543,15.135,0.492,21.126c1.996,3.942,9.059,9.043,13.121,10.524
								c6.412,2.34,10.865,3.508,15.912,8.508c3.16,3.134,5.363,3.479,10.045,3.758c5.334,0.314,10.693,0.229,16.031,0.061
								c2.285-0.07,6.539-0.883,8.24-0.156c5.141,2.192,9.145,6.475,14.24,8.732c6.021,2.668,11.807,2.852,18.287,3.254
								c4.334,0.271,7.938,4.484,12.551,5.332c4.191,0.77,10.574,3.053,14.811,2.346c8.613,0.096,19.217-1.916,26.973-5.652
								c5.156-2.482,10.146-2.477,15.891-2.709c5.482-0.221,7.848-0.229,10.688,5.029c3.178,5.885,0.73,15.52-0.234,21.852
								c3.221,1.291,2.908-5.633,3.107-7.908c0.793-3.869,0.773-10.869-1.02-14.439c-3.326-6.621-6.922-6.674-13.605-6.377
								c-3.324,0.146-6.646,0.373-9.967,0.631c-3.531,0.271-6.926,2.941-10.193,4.275c-8.463,3.449-20.193,3.707-29.061,2.293
								c-5.752-0.916-10.313-1.488-15.193-4.77c-4.184-2.807-9.504-2.031-14.451-2.436c-9.58-0.785-16.178-11.941-25.299-11.299
								c-5.016,0.354-10.078,0.32-15.102,0.252c-3.484-0.048-10.545,0.918-13.627-1.166c-4.768-9.633-18-9.646-25.35-16.047
								c-1.938-1.686-5.252-3.623-5.504-6.379c-0.338-3.673,0.08-7.436,0.248-11.107c0.402-8.752-2.475-15.988-6.322-23.756
								c-1.365-2.759-2.969-7.545-6.352-8.361c-3.764-0.91-8.033-0.26-11.805,0.316c0.002-8.841-0.119-17.682-0.221-26.521
								c4.615,0.425,4.27,4.604,7.234,6.979c3.219,2.582,6.732,4.998,9.729,7.838c3.781,3.586,7.553,7.752,11.906,10.646
								c2.439,1.637,6.436,0.09,9.314,0.703c1.26,0.267,1.262,1.235,2.875,1.315c0.436-2.793-2.715-3.291-4.689-3.593
								c-3.389-0.517-5.156,1.19-8.035-1.237c-4.527-3.822-8.646-8.086-13.266-11.795c-3.781-3.033-6.826-5.146-9.195-9.367
								c-1.156-2.063-7.414-2.93-5.604-5.164c2.814-3.482,5.633-6.967,8.449-10.447c1.408-1.741,2.816-3.482,4.227-5.225
								c1.537-1.901,3.045-1.018,5.289-1.896c8.973-3.519,17.504-8.88,25.986-13.407c12.67-6.762,25.188-13.729,37.691-20.789
								c9.721-5.488,19.441-10.979,29.164-16.471c4.285-2.42,10.229-7.51,15.105-8.531c0.701-0.344,1.404-0.688,2.105-1.031
								c2.215,6.354,6.869,11.143,10.795,16.574c1.293,1.793,3.102,3.771,3.895,5.867c0.686,1.809,1.23,6.004,2.73,7.291
								c8.822,7.788,19.068,11.305,30.553,12.479c20.209,2.068,40.455,3.826,60.691,5.621c2.979,0.266,6.334-0.57,9.303-0.867
								c3.703-0.371,7.516,0.279,11.219,0.562c5.229,0.396,10.568-1.972,15.838-1.972c4.367,0,10.928,1.738,14.826,3.617
								c14.756,7.106,28.939,14.396,44.207,20.338c9.643,3.752,17.064,10.92,25.209,17.246c8.656,6.727,16.254,14.373,25.129,20.897
								c9.701,7.138,18.77,17.115,29.568,22.31c7.729,3.718,17.17,8.994,23,15.188c1.695,1.801,3.35,3.643,4.973,5.508
								c1.791,0.324,0.928-1.807,0.48-2.313C658.625,295.665,655.93,291.741,652.67,289.914
								C645.129,285.657,654.567,290.978,652.67,289.914z M325.452,15.654C325.542,15.67,325.458,15.655,325.452,15.654
								L325.452,15.654z M325.713,16.075c-0.02-0.004-0.033-0.002-0.051-0.007L325.713,16.075z M326.372,15.882
								c-0.047-0.013-0.74-0.199-0.861-0.217C325.598,15.669,326.508,15.708,326.372,15.882z M215.381,165.414
								c-4.41,2.178-9.297,3.604-14.135,4.409c-1.242-0.676-2.414-5.529-3.02-6.916c14.938-2.161,23.43-15.004,29.219-27.381
								c2.652,1.562,5.295,3.139,7.938,4.718C228.717,148.634,222.049,157.024,215.381,165.414z M176.686,146.575
								c-0.182-1.512,0.104-4.551-0.814-5.801c-1.387-1.908-4.125-4.566-1.438-5.922c7.502-3.791,14.631-5.086,22.988-5.18
								c4.27-0.047,6.197,1.33,10.125,2.328c3.65,0.95,8.146-0.021,11.902,0.038c1.064,0.019,6.855,1.489,6.285,2.706
								c-1.055,2.257-2.109,4.515-3.166,6.771c-3.881,8.301-11.936,15.252-20.494,18.428
								C190.788,164.138,183.59,153.705,176.686,146.575z M183.665,156.554c3.189,3.448,7.719,6.504,12.58,6.504
								c1.449,1.193,2.311,5.287,3.08,7.053c-7.152,1.021-14.621-4.563-19.588-9.113
								C181.063,159.53,182.368,158.047,183.665,156.554C185.379,158.407,183.09,157.216,183.665,156.554z M161.348,175.194
								c4.707,4.316,14.814-10.199,17.129-12.793c5.387,4.981,13.242,10.572,20.979,9.592c1.604-0.203,3.576,6.609,4.162,7.955
								c3.963,9.074,7.93,18.148,11.893,27.225c-5.469-0.885-11.246-4.59-16.307-6.839c-6.436-2.858-12.865-5.729-19.291-8.608
								c-8.201-3.682-16.518-7.213-24.559-11.236C157.352,178.722,159.35,176.959,161.348,175.194z M191.641,217.771
								c-3.863-7.299-12.189-19.453-20.855-21.267c-9.186-1.921-19.469-5.396-20.098-16.487
								c12.486,6.264,25.223,11.996,37.996,17.692c7.393,3.298,14.791,6.583,22.191,9.856c0.855,0.377,1.854,1.024,2.773,1.197
								c0.813,0.145,1.631,0.279,2.447,0.405c0.393,2.372,0.777,4.746,1.146,7.122c0.568,3.646,1.16,7.229,1.17,10.918
								c-4.877-0.29-8.066-1.836-12.422-3.898c-5.137-2.435-8.348-2.303-13.479,0.34
								C192.637,221.729,192.555,219.513,191.641,217.771C190.95,216.464,192.688,219.767,191.641,217.771z M172.235,218.638
								c-1.799,1.912-1.152,8.385-5.346,5.784c-2.559-1.584-2.934-5.13-6.16-5.459c-5.957-0.604-11.836-2.849-17.385-4.979
								c-5.256-2.02-10.486-4.219-15.494-6.803c-5.115-2.641-1.24-8.873-6.787-11.158c-11.242-4.633-22.254-1.516-33.691,0.455
								c-13.549,2.334-20.402-3.629-30.566-11.322c15.412-4.359,30.814-8.844,46.357-12.725c9.389-2.345,19.131-1.252,28.697-0.59
								c4.027,0.279,8.764,3.489,12.439,5.148c1.973,0.896,4.369,1.086,4.523,3.418c0.127,1.9,0.414,3.873,1.381,5.55
								c1.637,2.837,3.596,6.478,6.666,7.938c5.912,2.812,13.777,3.209,18.811,7.362c5.51,4.55,14.857,13.532,14.979,21.104
								C187.411,221.131,175.352,215.308,172.235,218.638C171.313,219.618,174.172,216.567,172.235,218.638z M209.737,256.007
								c-8.871-3.904-17.043-2.127-26.109-4.191c2.078-8.83,5.424-17.5,8.273-26.1c4.201,0.092,6.592-3.713,11.637-1.464
								c4.707,2.099,8.428,4.362,13.646,4.761c2.719,0.207,1.393,12.645,1.42,15.52c0.041,4.496,0.084,8.992,0.084,13.488
								C215.493,257.599,212.7,257.312,209.737,256.007C207.811,255.159,211.108,256.61,209.737,256.007z M220.286,225.276
								c-0.168-5.272-1.377-10.614-2.229-15.809c4.59,0.686,9.223,1.283,13.865,1.426
								C228.042,215.688,224.165,220.481,220.286,225.276z M345.657,149.429c-26.697,15.076-53.244,30.438-80.285,44.893
								c-8.82,4.716-17.594,9.75-26.707,13.892c-5.352,2.433-13.482,0.374-19.027-0.412c-3.723-0.526-4.635-6.483-6.029-9.68
								c-0.316-0.724-3.771-8.017-3.361-8.198c2.83-1.26,5.66-2.52,8.49-3.777c9.881-4.396,19.762-8.793,29.645-13.19
								c6.645-2.956,8.926-4.714,13.836-10.304c3.934-4.478,7.123-9.5,10.525-14.389c11.121-15.965,21.73-32.039,32.271-48.392
								c9.063,8.286,20.912,14.091,30.514,21.879c3.008,2.438,4.328,4.187,5.711,7.765c1.225,3.17,2.377,6.365,3.523,9.564
								c0.799,2.229,1.588,4.459,2.373,6.691C348.299,149.101,348.209,148.097,345.657,149.429z"/>
						</g>
					</g>
				</g>
			</g>
		</g>
	</g>
	<g id="Outline">
		<path id="Ankaran-port" fill="none" d="M306.239,94.5c-1.068-1.94-2.797-7.362-4.646-8.431c-1.986-1.146-7.23,0.07-9.391,0.141
			c0.057-1.51,0.982-4.374-0.789-4.471c-2.477-0.135-4.955-0.26-7.43-0.406c-2.926-0.172-5.85-0.344-8.771-0.516
			c-1.943-0.114-5.939-1.168-7.781-0.459c-1.357,0.521-1.246,4.358-1.883,4.47c-3.141,0.545-6.277,1.091-9.416,1.637
			c-2.699,0.47-3.783,1.496-5.152-0.873c-1.457-2.519-2.914-5.034-4.371-7.553c1.869-0.065,7.098,0.712,8.432-0.534
			c1.289-1.205,2.189-0.844,3.475-1.695c1.912-1.271-0.783-1.854,2.775-2.004c2.059-0.09,8.674,0.207,4.23-2.455
			c-1.309-0.783-2.053-1.434-3.553-1.426c-1.568,0.01-2.107-1.104-3.633-1.376c-6.141-1.089-12.906-0.039-19.107,0.149
			c-3.426,0.104-6.852,0.207-10.277,0.312c-2.736,0.083,0.063-2.582-2.689-2.5c-2.898,0.086-17.043,2.464-18.367-0.768
			c-0.549-1.338,2.063-6.585,2.484-7.932c1.127-3.598,2.254-7.194,3.383-10.791c0.828-2.644,3.168-3.138,5.537-3.284
			c1.979-0.123,2.045,0.06,3.043-1.581c0.643-1.056,1.23-3.092,2.564-3.156c5.299-0.257,10.311-1.71,15.523-1.977
			c8.416-0.431,16.83-0.859,25.246-1.29c3.262-0.167,2.934-0.02,4-3.284c0.287-0.875,1.818-3.8,0.965-4.375
			c-1.689-1.136-2.564-1.703-4.678-1.21c-0.98-2.807,1.811-2.287,3.74-2.53c0.215-2.009-1.721-2.074-1.559-3.761
			c0.1-1.038-0.174-4.599,0.809-5.086c4.291-2.123,8.582-4.246,12.873-6.369c6.176-3.055,13.854-2.768,20.484-2.834
			c-0.037,3.462-0.074,6.925-0.109,10.388c-0.041,3.734-0.152,3.208,3.516,3.309c7.428,0.199,14.867,0.288,22.293,0.613
			c-0.066,2.4-2.289,1.773-2.605,3.905c-0.42,2.833-0.838,5.666-1.258,8.499c-0.75,5.066-1.705,10.147-2.256,15.239
			c-0.828,7.644-1.746,15.141-3.439,22.67c-2.223,9.896-8.045,19.086-14.25,26.979C302.831,96.722,305.252,95.462,306.239,94.5z"/>
		<path id="Koper" fill="none" stroke="#000000" stroke-miterlimit="10" d="M204.956,303.718c-2.715-1.115-5.43-2.234-8.143-3.354
			c-3.299-1.357-2.248-1.799-1.307-5.271c0.637-2.354,0.566-4.778-2.076-5.763c-2.598-0.965,0.289-1.117-0.568-2.824
			c-0.498-0.99-3.018-2.088-3.938-2.725c-1.047-0.725-0.977-1.592-1.262-2.848c-0.289-1.271-2.336-1.236-2.873-2.281
			c-0.242-0.477,0.398-2.652-0.172-2.737c-1.666-0.247-3.332-0.493-4.998-0.74c-0.662-0.099-2.047,0.019-2.377-0.644
			c-0.395-0.788-0.838-2.854-1.832-2.586c-3.35,0.9-6.699,1.801-10.051,2.701c-4.635,1.246-9.33,1.514-13.383,4.146
			c-2.537,1.647-4.336,3.271-7.334,3.522c-3.301,0.278-5.297,2.496-7.943,4.469c-4.334,3.232-9.756,4.688-14.764,6.668
			c-1.512,0.599-5.211-1.916-6.881-2.174c-2.748-0.422-5.861,0-8.646,0c0.705-1.172,2.682-3.762,0.955-4.487
			c-1.607-0.677-3.277-0.455-4.988-0.455c-2.73,0-5.842,2.132-8.309,3.194c-2.918,1.258-5.045,1.117-8.291,1.117
			c-3.326,0-2.627,1.774-4.883,3.818c-1.441,1.309-4.563,5.484-6.586,5.271c-2.76-0.287-5.645-0.332-8.332-1.043
			c-3.021-0.803-6.213-2.068-9.313-2.469c-2.898-0.375-5.521,0.389-8.293-0.69c-3.002-1.171-5.641-0.188-8.594-1.304
			c-4.193-1.584-8.09-4.162-11.791-6.66c-2.354-1.59-5.105-2.733-7.623-4.055c-1.953-1.023-4.115-0.18-6.064-2.015
			c-0.621-0.88-0.207-2.015-0.359-3.192c-0.469-3.644-2.043-6.633-1.869-10.289c0.141-2.914-0.18-6.283,0.504-9.125
			c1.057-4.375-0.957-8.347-0.211-12.727c0.656-3.859,11.371-7.08,14.434-8.457c-2.27-4.527-4.537-9.059-6.807-13.587
			c-2.059-4.11-1.775-11.065-2.496-15.634c-0.43-2.727-11.461-3.572-10.488-5.951c0.881-2.157,1.408-5.605,3.588-6.652
			c2.266-1.091,3.662-2.941,6.002-4.439c-2.59-2.233-6.861-4.785-6.809-8.375c0.064-4.332-2.205-8.973-4.074-12.788
			c4.242-1.261,4.176-1.509,5.734-5.671c1.109-2.959,2.822-4.135,3.637-7.336c0.607-2.383-0.607-4.42,1.051-6.051
			c2.635-2.593,5.27-5.187,7.904-7.777c1.637-1.605-1.484-3.184,1.559-3.193c3.51-0.013,7.02-0.023,10.529-0.037
			c7.879-0.027,15.756-0.058,23.635-0.086c5.512-0.02,11.52,2.754,16.795,4.2c5.248,1.44,10.545,1.416,15.9,2.282
			c2.861,0.462,5.717,0.931,8.563,1.467c1.92,0.361,3.84,0.725,5.76,1.084c1.238,0.232,0.869,2.648,0.982,3.758
			c0.205,1.979,9.521,6.262,11.928,8.079c6.527,4.937,13.053,9.869,19.58,14.806c2.924,2.209,2.553,1.615,5.455-1.031
			c1.426-1.303,2.988-1.43,4.361-2.92c5.461-5.933,10.922-11.862,16.383-17.793c2.119-2.301,4.234-4.603,6.354-6.901
			c1.119-1.216-0.318-4.382-0.709-5.94c-0.539,0.33-1.375,0.18-1.918,0.508c-0.225-1.016-0.344-4.238-1.082-4.887
			c-0.881-0.771-4.504-0.51-5.729-0.646c1.881-1.973,3.76-3.943,5.641-5.916c2.088-2.188,2.76,0.277,4.818-1.139
			c2.434-1.679,4.012-2.059,6.938-2.682c3.4-0.723,3.355-0.365,3.355-3.846c6.326,2.224,10.703,1.775,17.479,1.396
			c5.762-0.323,11.041,0.259,16.053-2.595c2.438-1.389,16.898-7.736,16.508-10.273c-0.344-2.213,0.352-5.604-2.227-5.522
			c-3.918,0.125-7.836,0.25-11.752,0.375c-3.887,0.124-7.771,0.247-11.658,0.372c-3.115,0.099-2.625-0.107-3.6-3.225
			c-0.758-2.426-2.623-5.865-2.58-8.418c0.023-1.4-0.732-8.513,0.26-9.189c2.813-1.915,5.621-3.829,8.432-5.743
			c2.125-1.447,5.789-0.854,8.271-0.987c1.621-0.087,3.242-0.174,4.861-0.261c0.994-0.054,0.369-2.147,0.838-2.147
			c3.234,0,6.467,0,9.701,0c4.158,0,8.314,0,12.475,0c1.854,0,4.459,6.672,5.357,8.225c1.947,3.369,4.051,1.585,7.773,0.809
			c2.023-0.423,4.049-0.846,6.072-1.269c0.996-0.208,0.344-3.07,0.313-3.99c9.191,0.229,18.385,0.456,27.574,0.685
			c0.447,0.01-0.709,3.809,0.742,4.099c1.814,0.362,5.705,0.34,7.172,1.435c1.482,1.104,2.66,4.299,3.629,5.86
			c1.568,2.534,2.654,2.935,0.078,4.955c2.789,2.952,5.578,5.903,8.369,8.854c0.799,0.846-2.795,9.475-3.156,10.655
			c-0.662,2.163-3.889,8.403-3.227,10.613c1.004,3.356,2.01,6.713,3.016,10.069c1.625,5.424,3.248,10.85,4.873,16.273
			c0.666,2.227,0.99,5.207,2.459,7.068c2.816,3.568,5.635,7.14,8.451,10.709c0.941,1.195,10.15-0.321,11.959-0.395
			c-2.91,2.471-5.82,4.938-8.73,7.408c-2.217,1.88,0.225,4.266,1.352,6.689c1.842,3.963,3.686,7.926,5.527,11.89
			c0.648,1.401-4.922,3.642-6.223,4.394c-0.898-1.726-0.844-3.324-2.73-2.379c-2.127,1.063-4.252,2.125-6.379,3.188
			c5.697,2.451-7.061,9.447-5.014,13.533c0.508,1.013-5.992,4.547-6.16,4.307c-1.74-2.479-2.088-5.121-4.984-3.707
			c-3.598,1.756-7.195,3.512-10.793,5.268c-1.057,0.516-2.113,1.031-3.172,1.549c-0.4,0.195-0.805-1.689-2.146-1.063
			c-3.342,1.563-3.758,2.879-6.543,5.13c-3.637,2.939-2.328,3.053,0.127,6.934c-6.734-0.25-16.527,1.563-21.881-2.791
			c-1.41-1.149-2.799-0.635-4.525-1.014c-1.967-0.433-3.949-1.455-5.836-2.15c-2.023-0.746-7.613-2.584-8.811-1.119
			c3.037,1.574,6.072,3.148,9.107,4.722c1.342,0.694,8.146,3.146,8.146,4.743c0,3.253,1.098,0.283,2.451,0.844
			c1.713,0.711,3.428,1.42,5.143,2.129s3.43,1.418,5.145,2.127c0.453,0.188-0.195,4.291-0.244,4.959
			c1.031,0.066,2.063,0.137,3.096,0.205c-2.018,1.889-2.982,2.854-2.4,5.68c0.379-0.106,0.756-0.215,1.133-0.321
			c0,2.687,0,5.37,0,8.055c-3.73-0.118-7.463-0.235-11.195-0.354c0.391,0.84,3.188,5.974,2.652,6.304
			c-2.795,1.731-5.59,3.465-8.385,5.196c-3.654,2.267-7.313,4.533-10.967,6.799c-2.854,1.771-2.148,1.992-1.43,5.471
			c-1.879,0.215-3.758,0.428-5.635,0.641c-0.566,0.063-1.902-0.024-2.422,0.272c-0.313,0.183,0.357,1.845-0.143,1.906
			c-2.627,0.327-7.926-0.114-10.004,1.53C218.176,293.253,211.565,298.485,204.956,303.718z"/>
	</g>
</g>
</svg>
